<svg width="109" height="36" viewBox="0 0 109 36" fill="none" xmlns="http://www.w3.org/2000/svg">
  <path
    d="M36 18C36 8.05887 27.9411 0 18 0C8.05887 0 0 8.05887 0 18C0 27.9411 8.05887 36 18 36C27.9411 36 36 27.9411 36 18Z"
    fill="#B497EE" />
  <path
    d="M28.125 18C28.125 12.4081 23.5919 7.875 18 7.875C12.4081 7.875 7.875 12.4081 7.875 18C7.875 23.5919 12.4081 28.125 18 28.125C23.5919 28.125 28.125 23.5919 28.125 18Z"
    fill="white" />
  <path
    d="M59.652 23H57.276V20.822H57.204C56.772 21.566 56.13 22.166 55.278 22.622C54.438 23.078 53.472 23.306 52.38 23.306C50.52 23.306 48.93 22.628 47.61 21.272C46.29 19.916 45.63 18.242 45.63 16.25C45.63 14.246 46.338 12.572 47.754 11.228C49.182 9.872 50.946 9.194 53.046 9.194C54.546 9.194 55.932 9.608 57.204 10.436C58.476 11.264 59.292 12.356 59.652 13.712H56.88C56.544 13.052 56.034 12.524 55.35 12.128C54.678 11.732 53.91 11.534 53.046 11.534C51.702 11.534 50.574 12.002 49.662 12.938C48.75 13.862 48.294 14.966 48.294 16.25C48.294 17.534 48.732 18.644 49.608 19.58C50.496 20.504 51.57 20.966 52.83 20.966C53.874 20.966 54.816 20.624 55.656 19.94C56.496 19.256 57 18.428 57.168 17.456H53.046V15.008H59.652V23ZM64.4563 23H61.9003V9.5H64.4563V13.874L64.4743 13.892H64.4923L64.5103 13.874C64.8223 13.418 65.2363 13.04 65.7523 12.74C66.2803 12.428 66.8623 12.272 67.4983 12.272C68.7103 12.272 69.6823 12.68 70.4143 13.496C71.1583 14.312 71.5303 15.38 71.5303 16.7V23H68.9743V17.024C68.9743 16.388 68.7523 15.848 68.3083 15.404C67.8763 14.948 67.3483 14.72 66.7243 14.72C66.0883 14.72 65.5483 14.948 65.1043 15.404C64.6723 15.848 64.4563 16.388 64.4563 17.024V23ZM82.0832 17.78C82.0832 16.832 81.8072 16.058 81.2552 15.458C80.7032 14.846 79.9652 14.54 79.0412 14.54C78.1292 14.54 77.3912 14.846 76.8272 15.458C76.2752 16.07 75.9992 16.844 75.9992 17.78C75.9992 18.728 76.2752 19.508 76.8272 20.12C77.3912 20.732 78.1292 21.038 79.0412 21.038C79.9652 21.038 80.7032 20.738 81.2552 20.138C81.8072 19.526 82.0832 18.74 82.0832 17.78ZM84.7472 17.78C84.7472 19.352 84.1952 20.666 83.0912 21.722C81.9872 22.778 80.6372 23.306 79.0412 23.306C77.4572 23.306 76.1072 22.778 74.9912 21.722C73.8872 20.666 73.3352 19.352 73.3352 17.78C73.3352 16.22 73.8872 14.912 74.9912 13.856C76.1072 12.8 77.4572 12.272 79.0412 12.272C80.6372 12.272 81.9872 12.8 83.0912 13.856C84.1952 14.912 84.7472 16.22 84.7472 17.78ZM86.8688 14.558H85.9148V12.578H86.8688V10.22H89.4248V12.578H91.2068V14.558H89.4248V20.102C89.4248 20.282 89.4848 20.432 89.6048 20.552C89.7248 20.672 89.8688 20.732 90.0368 20.732H91.2068V23H90.0368C89.0888 23 88.3208 22.724 87.7328 22.172C87.1568 21.608 86.8688 20.858 86.8688 19.922V14.558ZM103.377 17.78C103.377 18.14 103.329 18.53 103.233 18.95H94.8271C94.9711 19.538 95.3131 20.042 95.8531 20.462C96.4051 20.882 97.0351 21.092 97.7431 21.092C98.2591 21.092 98.7211 20.978 99.1291 20.75C99.5371 20.51 99.8551 20.216 100.083 19.868H102.855C102.483 20.912 101.829 21.746 100.893 22.37C99.9571 22.994 98.9071 23.306 97.7431 23.306C96.1711 23.306 94.8331 22.778 93.7291 21.722C92.6371 20.654 92.0911 19.34 92.0911 17.78C92.0911 16.22 92.6431 14.912 93.7471 13.856C94.8511 12.8 96.1951 12.272 97.7791 12.272C99.3271 12.272 100.647 12.806 101.739 13.874C102.831 14.942 103.377 16.244 103.377 17.78ZM94.8631 16.736H100.641C100.509 16.076 100.185 15.53 99.6691 15.098C99.1651 14.654 98.5351 14.432 97.7791 14.432C97.0231 14.432 96.3811 14.654 95.8531 15.098C95.3251 15.542 94.9951 16.088 94.8631 16.736ZM105.178 23V9.5H107.734V23H105.178Z"
    fill="#0F1419" />
</svg>
  